# xmcd
#
# Track frame offsets: 
#        150
#        17780
#        31864
#        50979
#        67532
#        86056
#        103369
#        122045
#        140087
#        165319
#        187450
#        211083
#
# Disc length: 3179 seconds
#
# Revision: 0
# Processed by: cddbd v1.5.2PL0 Copyright (c) Steve Scherf et al.
# Submitted via: ExactAudioCopy v1.3
#
DISCID=ac0c690c
DTITLE=Sara Evans - Feels Like Home
DYEAR=2005
DGENRE=Country
TTITLE0=The Great Unknown
TTITLE1=Fool, I'm A Woman
TTITLE2=No Place That Far (Acoustic)
TTITLE3=Born To Fly (Live)
TTITLE4=Three Chords And The Truth
TTITLE5=Why Should I Care
TTITLE6=Let's Dance
TTITLE7=Rockin' Horse
TTITLE8=Niagara
TTITLE9=I Give In
TTITLE10=You Don't
TTITLE11=Every Little Kiss
EXTD=
EXTT0=
EXTT1=
EXTT2=
EXTT3=
EXTT4=
EXTT5=
EXTT6=
EXTT7=
EXTT8=
EXTT9=
EXTT10=
EXTT11=
PLAYORDER=
